<?xml version="1.0" encoding="utf-8"?>
<!-- Generator: Adobe Illustrator 21.1.0, SVG Export Plug-In . SVG Version: 6.00 Build 0)  -->
<svg version="1.1" id="Layer_1" xmlns="http://www.w3.org/2000/svg" xmlns:xlink="http://www.w3.org/1999/xlink" x="0px" y="0px"
	 viewBox="0 0 108 108" style="enable-background:new 0 0 108 108;" xml:space="preserve">
<style type="text/css">
	.st0{fill:#363636;}
	.st1{fill:#009966;}
	.st2{fill:#008055;}
	.st3{fill:#006644;}
</style>
<circle class="st0" cx="54.5" cy="53.5" r="36"/>
<circle class="st1" cx="54.4" cy="53.4" r="6.5"/>
<path class="st2" d="M68.1,54.1c-0.3,7.2-6.2,12.9-13.5,12.9c-7.5,0-13.5-6-13.5-13.5s6-13.5,13.5-13.5c2.4,0,4.6,0.6,6.6,1.7
	l4.9-3.5c-3.2-2.4-7.2-3.9-11.5-3.9C44,34.4,35.4,43,35.4,53.6S44,72.7,54.6,72.7s19.1-8.6,19.1-19.1c0-1.1-0.1-2.2-0.3-3.2
	L68.1,54.1z"/>
<path class="st3" d="M80.2,45.6c0.8,2.5,1.2,5.2,1.2,8c0,14.9-12.1,27-27,27s-27-12.1-27-27s12.1-27,27-27c7.1,0,13.5,2.7,18.3,7.1
	l5.7-4c-6.1-6.2-14.6-10-24-10c-18.6,0-33.8,15.1-33.8,33.8s15.1,33.8,33.8,33.8s33.8-15.1,33.8-33.8c0-4.2-0.8-8.2-2.2-11.9
	L80.2,45.6z"/>
<path class="st1" d="M79.8,31.3L59.7,45.4c2,1.3,3.5,3.3,4.1,5.7l20.1-14C82.7,35,81.4,33.1,79.8,31.3z"/>
</svg>
