<?xml version="1.0" encoding="utf-8"?>
<!-- Generator: Adobe Illustrator 21.1.0, SVG Export Plug-In . SVG Version: 6.00 Build 0)  -->
<svg style="enable-background:new 0 0 108 108;" id="Layer_1" version="1.1" viewBox="0 0 108 108" x="0px"
     xmlns="http://www.w3.org/2000/svg" y="0px" xml:space="preserve">
<style type="text/css">
	.st0{fill:#009966;}
	.st1{fill:#008055;}
	.st2{fill:#006644;}
</style>
    <circle class="st0" cx="54" cy="54" r="6.9"/>
    <path class="st1" d="M68.5,54.8c-0.3,7.7-6.6,13.8-14.4,13.8c-8,0-14.4-6.4-14.4-14.4s6.4-14.4,14.4-14.4c2.6,0,5,0.7,7,1.8l5.3-3.7
	c-3.4-2.6-7.7-4.1-12.3-4.1c-11.3,0-20.4,9.1-20.4,20.4s9.1,20.4,20.4,20.4s20.4-9.1,20.4-20.4c0-1.2-0.1-2.3-0.3-3.4L68.5,54.8z"/>
    <path class="st2" d="M81.5,45.7c0.8,2.7,1.3,5.5,1.3,8.5c0,15.9-12.9,28.8-28.8,28.8S25.2,70.1,25.2,54.2S38.1,25.4,54,25.4
	c7.5,0,14.4,2.9,19.5,7.6l6.1-4.3C73.1,22.1,64,18,54,18c-19.9,0-36,16.1-36,36s16.1,36,36,36s36-16.1,36-36c0-4.5-0.8-8.7-2.3-12.7
	L81.5,45.7z"/>
    <path class="st0"
          d="M81.1,30.4l-21.5,15c2.1,1.4,3.7,3.5,4.4,6.1l21.4-15C84.2,34.4,82.7,32.3,81.1,30.4z"/>
</svg>
