<?xml version="1.0" encoding="UTF-8" standalone="no"?>
<!-- Generator: Adobe Illustrator 21.1.0, SVG Export Plug-In . SVG Version: 6.00 Build 0)  -->

<!--suppress XmlHighlighting -->
<svg
    xmlns:cc="http://creativecommons.org/ns#"
    xmlns:dc="http://purl.org/dc/elements/1.1/"
    xmlns:inkscape="http://www.inkscape.org/namespaces/inkscape"
    xmlns:rdf="http://www.w3.org/1999/02/22-rdf-syntax-ns#"
    xmlns:sodipodi="http://sodipodi.sourceforge.net/DTD/sodipodi-0.dtd"
    style="enable-background:new 0 0 108 108;"
    id="Layer_1"
    version="1.1"
    viewBox="0 0 108 108"
    x="0px"
    xmlns="http://www.w3.org/2000/svg"
    y="0px"
    inkscape:version="0.92.2 (5c3e80d, 2017-08-06)"
    sodipodi:docname="signals_icon_5.svg"
    xml:space="preserve"><metadata
     id="metadata4524"><rdf:RDF><cc:Work
         rdf:about=""><dc:format>image/svg+xml</dc:format><dc:type
    rdf:resource="http://purl.org/dc/dcmitype/StillImage"/><dc:title/></cc:Work></rdf:RDF></metadata>
    <defs
        id="defs4522"/>
    <sodipodi:namedview
        bordercolor="#666666"
        borderopacity="1"
        gridtolerance="10"
        guidetolerance="10"
        id="namedview4520"
        objecttolerance="10"
        pagecolor="#ffffff"
        showgrid="false"
        inkscape:bbox-nodes="true"
        inkscape:bbox-paths="true"
        inkscape:current-layer="g909"
        inkscape:cx="12.462635"
        inkscape:cy="55.223494"
        inkscape:object-paths="true"
        inkscape:pageopacity="0"
        inkscape:pageshadow="2"
        inkscape:snap-bbox="false"
        inkscape:snap-bbox-edge-midpoints="true"
        inkscape:snap-bbox-midpoints="true"
        inkscape:snap-center="true"
        inkscape:snap-midpoints="true"
        inkscape:snap-object-midpoints="true"
        inkscape:snap-others="false"
        inkscape:window-height="1017"
        inkscape:window-maximized="1"
        inkscape:window-width="1920"
        inkscape:window-x="-8"
        inkscape:window-y="-8"
        inkscape:zoom="4"/>
    <style
        id="style4509"
        type="text/css">
	.st0{fill:#009966;}
	.st1{fill:#008055;}
	.st2{fill:#006644;}
</style>
    <rect
        style="display:inline;opacity:1;fill:#00663b;fill-opacity:1;fill-rule:nonzero;stroke:none;stroke-width:19.99999809;stroke-linejoin:round;stroke-miterlimit:4;stroke-dasharray:none;stroke-opacity:1;paint-order:normal"
        height="107.99998"
        id="rect5088"
        width="108"
        x="0"
        y="2.5019999e-005"
        inkscape:label="background"
        sodipodi:insensitive="true"/>
    <g
        id="g5730"
        inkscape:label="guides"
        sodipodi:insensitive="true"><circle
       style="display:none;opacity:0.1;fill:#000000;fill-opacity:1;fill-rule:nonzero;stroke:none;stroke-width:20;stroke-linejoin:round;stroke-miterlimit:4;stroke-dasharray:none;stroke-opacity:1;paint-order:normal"
       cx="54"
       cy="54"
       id="path5084"
       r="36"
       sodipodi:insensitive="true" />
        <rect
            style="display:inline;opacity:0.1;fill:#000000;fill-opacity:1;fill-rule:nonzero;stroke:none;stroke-width:20;stroke-linejoin:round;stroke-miterlimit:4;stroke-dasharray:none;stroke-opacity:1;paint-order:normal"
            height="72"
            id="rect5086"
            width="72"
            x="18"
            y="18"
            sodipodi:insensitive="true"/>
        <circle
            style="display:inline;opacity:0.1;fill:#ffff00;fill-opacity:1;fill-rule:nonzero;stroke:none;stroke-width:20;stroke-linejoin:round;stroke-miterlimit:4;stroke-dasharray:none;stroke-opacity:1;paint-order:normal"
            cx="54"
            cy="54"
            id="path5734"
            r="28"
            sodipodi:insensitive="true"/></g>
    <g
        style="display:none"
        id="g5726"
        inkscape:label="old"
        sodipodi:insensitive="true"><circle
       style="display:inline;opacity:1;fill:#ffffff;fill-opacity:1;stroke-width:0.99999994"
       class="st0"
       cx="54"
       cy="54"
       id="circle4511"
       r="5.2254152" />
        <path
            style="display:inline;opacity:0.6;fill:#ffffff;fill-opacity:1;stroke-width:0.99999994"
            class="st1"
            d="M 64.905215,54.454384 C 64.678023,60.285645 59.906992,64.905215 54,64.905215 47.941548,64.905215 43.094786,60.058453 43.094786,54 c 0,-6.058452 4.846762,-10.905215 10.905214,-10.905215 1.968998,0 3.786533,0.530115 5.301146,1.363152 l 4.013725,-2.802034 C 60.740029,39.686906 57.483611,38.550946 54,38.550946 c -8.557564,0 -15.449054,6.89149 -15.449054,15.449054 0,8.557564 6.89149,15.449054 15.449054,15.449054 8.557565,0 15.449054,-6.89149 15.449054,-15.449054 0,-0.908768 -0.07573,-1.741805 -0.227192,-2.574842 z"
            id="path4513"
            inkscape:connector-curvature="0"/>
        <path
            style="display:inline;opacity:0.2;fill:#ffffff;fill-opacity:1;stroke-width:0.99999994"
            class="st2"
            d="M 74.625,47.775 C 75.225001,49.8 75.6,51.9 75.6,54.15 c 0,11.925001 -9.675,21.6 -21.6,21.6 -11.925,0 -21.599999,-9.674999 -21.599999,-21.6 0,-11.924999 9.674999,-21.6 21.599999,-21.6 5.625,0 10.8,2.175 14.625,5.7 L 73.2,35.025001 C 68.325,30.075 61.5,27 54,27 39.075,27 27,39.075 27,54 27,68.925001 39.075,81 54,81 68.925001,81 81,68.925001 81,54 81,50.625 80.4,47.475001 79.275,44.475 Z"
            id="path4515"
            inkscape:connector-curvature="0"/>
        <path
            style="display:inline;opacity:1;fill:#ffffff;fill-opacity:1"
            class="st0"
            d="m 81.1,30.4 -21.5,15 c 2.1,1.4 3.7,3.5 4.4,6.1 l 21.4,-15 c -1.2,-2.1 -2.7,-4.2 -4.3,-6.1 z"
            id="path4517"
            inkscape:connector-curvature="0"/></g>
    <g
        style="display:none;opacity:0.98999999"
        id="g5772"
        inkscape:label="new_before_cut"><path
       style="display:inline;opacity:0.2;fill:#ffffff;fill-opacity:1;fill-rule:nonzero;stroke:none;stroke-width:20;stroke-linejoin:round;stroke-miterlimit:4;stroke-dasharray:none;stroke-opacity:1;paint-order:normal"
       d="M 54,26 A 28,28 0 0 0 26,54 28,28 0 0 0 54,82 28,28 0 0 0 82,54 28,28 0 0 0 54,26 Z m 0,10.5 a 17.5,17.5 0 0 1 1.748047,0.08789 17.5,17.5 0 0 1 1.728515,0.261718 17.5,17.5 0 0 1 1.695313,0.431641 17.5,17.5 0 0 1 1.642578,0.599609 17.5,17.5 0 0 1 1.576172,0.761719 17.5,17.5 0 0 1 1.490234,0.914063 17.5,17.5 0 0 1 1.392579,1.058593 17.5,17.5 0 0 1 1.28125,1.19336 17.5,17.5 0 0 1 1.154296,1.3125 17.5,17.5 0 0 1 1.017578,1.423828 17.5,17.5 0 0 1 0.869141,1.517578 17.5,17.5 0 0 1 0.714844,1.595703 17.5,17.5 0 0 1 0.550781,1.660156 17.5,17.5 0 0 1 0.384766,1.707032 17.5,17.5 0 0 1 0.210937,1.736328 A 17.5,17.5 0 0 1 71.5,54 a 17.5,17.5 0 0 1 -0.08789,1.748047 17.5,17.5 0 0 1 -0.261718,1.728515 17.5,17.5 0 0 1 -0.431641,1.695313 17.5,17.5 0 0 1 -0.599609,1.642578 17.5,17.5 0 0 1 -0.761719,1.576172 17.5,17.5 0 0 1 -0.914063,1.490234 17.5,17.5 0 0 1 -1.058593,1.392579 17.5,17.5 0 0 1 -1.19336,1.28125 17.5,17.5 0 0 1 -1.3125,1.154296 17.5,17.5 0 0 1 -1.423828,1.017578 17.5,17.5 0 0 1 -1.517578,0.869141 17.5,17.5 0 0 1 -1.595703,0.714844 17.5,17.5 0 0 1 -1.660156,0.550781 17.5,17.5 0 0 1 -1.707032,0.384766 17.5,17.5 0 0 1 -1.736328,0.210937 A 17.5,17.5 0 0 1 54,71.5 17.5,17.5 0 0 1 52.251953,71.412109 17.5,17.5 0 0 1 50.523438,71.150391 17.5,17.5 0 0 1 48.828125,70.71875 17.5,17.5 0 0 1 47.185547,70.119141 17.5,17.5 0 0 1 45.609375,69.357422 17.5,17.5 0 0 1 44.119141,68.443359 17.5,17.5 0 0 1 42.726562,67.384766 17.5,17.5 0 0 1 41.445312,66.191406 17.5,17.5 0 0 1 40.291016,64.878906 17.5,17.5 0 0 1 39.273438,63.455078 17.5,17.5 0 0 1 38.404297,61.9375 17.5,17.5 0 0 1 37.689453,60.341797 17.5,17.5 0 0 1 37.138672,58.681641 17.5,17.5 0 0 1 36.753906,56.974609 17.5,17.5 0 0 1 36.542969,55.238281 17.5,17.5 0 0 1 36.5,54 a 17.5,17.5 0 0 1 0.08789,-1.748047 17.5,17.5 0 0 1 0.261718,-1.728515 17.5,17.5 0 0 1 0.431641,-1.695313 17.5,17.5 0 0 1 0.599609,-1.642578 17.5,17.5 0 0 1 0.761719,-1.576172 17.5,17.5 0 0 1 0.914063,-1.490234 17.5,17.5 0 0 1 1.058593,-1.392579 17.5,17.5 0 0 1 1.19336,-1.28125 17.5,17.5 0 0 1 1.3125,-1.154296 17.5,17.5 0 0 1 1.423828,-1.017578 17.5,17.5 0 0 1 1.517578,-0.869141 17.5,17.5 0 0 1 1.595703,-0.714844 17.5,17.5 0 0 1 1.660156,-0.550781 17.5,17.5 0 0 1 1.707032,-0.384766 17.5,17.5 0 0 1 1.736328,-0.210937 A 17.5,17.5 0 0 1 54,36.5 Z"
       id="path5732-9-6"
       inkscape:connector-curvature="0" />
        <path
            style="opacity:0.6;fill:#ffffff;fill-opacity:1;fill-rule:nonzero;stroke:none;stroke-width:20;stroke-linejoin:round;stroke-miterlimit:4;stroke-dasharray:none;stroke-opacity:1;paint-order:normal"
            d="m 54,47 a 7,7 0 0 0 -0.496094,0.01758 7,7 0 0 0 -0.693359,0.08398 7,7 0 0 0 -0.683594,0.154297 7,7 0 0 0 -0.664062,0.220703 7,7 0 0 0 -0.638672,0.285157 7,7 0 0 0 -0.605469,0.347656 7,7 0 0 0 -0.570312,0.408203 7,7 0 0 0 -0.525391,0.460938 7,7 0 0 0 -0.476563,0.511718 7,7 0 0 0 -0.423828,0.556641 7,7 0 0 0 -0.365234,0.597656 7,7 0 0 0 -0.304688,0.628907 7,7 0 0 0 -0.240234,0.658203 7,7 0 0 0 -0.173828,0.677734 7,7 0 0 0 -0.103516,0.691406 A 7,7 0 0 0 47,54 a 7,7 0 0 0 0.01758,0.496094 7,7 0 0 0 0.08398,0.693359 7,7 0 0 0 0.154297,0.683594 7,7 0 0 0 0.220703,0.664062 7,7 0 0 0 0.285157,0.638672 7,7 0 0 0 0.347656,0.605469 7,7 0 0 0 0.408203,0.570312 7,7 0 0 0 0.460938,0.525391 7,7 0 0 0 0.511718,0.476563 7,7 0 0 0 0.556641,0.423828 7,7 0 0 0 0.597656,0.365234 7,7 0 0 0 0.628907,0.304688 7,7 0 0 0 0.658203,0.240234 7,7 0 0 0 0.677734,0.173828 7,7 0 0 0 0.691406,0.103516 A 7,7 0 0 0 54,61 a 7,7 0 0 0 0.496094,-0.01758 7,7 0 0 0 0.693359,-0.08398 7,7 0 0 0 0.683594,-0.154297 7,7 0 0 0 0.664062,-0.220703 7,7 0 0 0 0.638672,-0.285157 7,7 0 0 0 0.605469,-0.347656 7,7 0 0 0 0.570312,-0.408203 7,7 0 0 0 0.525391,-0.460938 7,7 0 0 0 0.476563,-0.511718 7,7 0 0 0 0.423828,-0.556641 7,7 0 0 0 0.365234,-0.597656 7,7 0 0 0 0.304688,-0.628907 7,7 0 0 0 0.240234,-0.658203 7,7 0 0 0 0.173828,-0.677734 7,7 0 0 0 0.103516,-0.691406 A 7,7 0 0 0 61,54 7,7 0 0 0 60.982422,53.503906 7,7 0 0 0 60.898438,52.810547 7,7 0 0 0 60.744141,52.126953 7,7 0 0 0 60.523438,51.462891 7,7 0 0 0 60.238281,50.824219 7,7 0 0 0 59.890625,50.21875 7,7 0 0 0 59.482422,49.648438 7,7 0 0 0 59.021484,49.123047 7,7 0 0 0 58.509766,48.646484 7,7 0 0 0 57.953125,48.222656 7,7 0 0 0 57.355469,47.857422 7,7 0 0 0 56.726562,47.552734 7,7 0 0 0 56.068359,47.3125 7,7 0 0 0 55.390625,47.138672 7,7 0 0 0 54.699219,47.035156 7,7 0 0 0 54,47 Z"
            id="path5801"
            inkscape:connector-curvature="0"/>
        <path
            style="opacity:0.6;fill:#ffffff;fill-opacity:1;fill-rule:nonzero;stroke:none;stroke-width:20;stroke-linejoin:round;stroke-miterlimit:4;stroke-dasharray:none;stroke-opacity:1;paint-order:normal"
            d="M 54,40 A 14,14 0 0 0 40,54 14,14 0 0 0 54,68 14,14 0 0 0 68,54 14,14 0 0 0 54,40 Z m 0,7 a 7,7 0 0 1 0.699219,0.03516 7,7 0 0 1 0.691406,0.103516 7,7 0 0 1 0.677734,0.173828 7,7 0 0 1 0.658203,0.240234 7,7 0 0 1 0.628907,0.304688 7,7 0 0 1 0.597656,0.365234 7,7 0 0 1 0.556641,0.423828 7,7 0 0 1 0.511718,0.476563 7,7 0 0 1 0.460938,0.525391 7,7 0 0 1 0.408203,0.570312 7,7 0 0 1 0.347656,0.605469 7,7 0 0 1 0.285157,0.638672 7,7 0 0 1 0.220703,0.664062 7,7 0 0 1 0.154297,0.683594 7,7 0 0 1 0.08398,0.693359 A 7,7 0 0 1 61,54 a 7,7 0 0 1 -0.03516,0.699219 7,7 0 0 1 -0.103516,0.691406 7,7 0 0 1 -0.173828,0.677734 7,7 0 0 1 -0.240234,0.658203 7,7 0 0 1 -0.304688,0.628907 7,7 0 0 1 -0.365234,0.597656 7,7 0 0 1 -0.423828,0.556641 7,7 0 0 1 -0.476563,0.511718 7,7 0 0 1 -0.525391,0.460938 7,7 0 0 1 -0.570312,0.408203 7,7 0 0 1 -0.605469,0.347656 7,7 0 0 1 -0.638672,0.285157 7,7 0 0 1 -0.664062,0.220703 7,7 0 0 1 -0.683594,0.154297 7,7 0 0 1 -0.693359,0.08398 A 7,7 0 0 1 54,61 7,7 0 0 1 53.300781,60.964844 7,7 0 0 1 52.609375,60.861328 7,7 0 0 1 51.931641,60.6875 7,7 0 0 1 51.273438,60.447266 7,7 0 0 1 50.644531,60.142578 7,7 0 0 1 50.046875,59.777344 7,7 0 0 1 49.490234,59.353516 7,7 0 0 1 48.978516,58.876953 7,7 0 0 1 48.517578,58.351562 7,7 0 0 1 48.109375,57.78125 7,7 0 0 1 47.761719,57.175781 7,7 0 0 1 47.476562,56.537109 7,7 0 0 1 47.255859,55.873047 7,7 0 0 1 47.101562,55.189453 7,7 0 0 1 47.017578,54.496094 7,7 0 0 1 47,54 a 7,7 0 0 1 0.03516,-0.699219 7,7 0 0 1 0.103516,-0.691406 7,7 0 0 1 0.173828,-0.677734 7,7 0 0 1 0.240234,-0.658203 7,7 0 0 1 0.304688,-0.628907 7,7 0 0 1 0.365234,-0.597656 7,7 0 0 1 0.423828,-0.556641 7,7 0 0 1 0.476563,-0.511718 7,7 0 0 1 0.525391,-0.460938 7,7 0 0 1 0.570312,-0.408203 7,7 0 0 1 0.605469,-0.347656 7,7 0 0 1 0.638672,-0.285157 7,7 0 0 1 0.664062,-0.220703 7,7 0 0 1 0.683594,-0.154297 7,7 0 0 1 0.693359,-0.08398 A 7,7 0 0 1 54,47 Z"
            id="path5732-9"
            inkscape:connector-curvature="0"/>
        <circle
            style="opacity:1;fill:#ffffff;fill-opacity:1;fill-rule:nonzero;stroke:none;stroke-width:20;stroke-linejoin:round;stroke-miterlimit:4;stroke-dasharray:none;stroke-opacity:1;paint-order:normal"
            cx="54"
            cy="54.000011"
            id="path5732"
            r="3.5"/>
        <rect
            style="opacity:0.5;fill:#ffff00;fill-opacity:1;fill-rule:nonzero;stroke:none;stroke-width:20;stroke-linejoin:round;stroke-miterlimit:4;stroke-dasharray:none;stroke-opacity:1;paint-order:normal"
            height="7"
            id="rect5803-9"
            ry="0"
            transform="rotate(-35)"
            width="45"
            x="13.261083"
            y="71.707336"
            inkscape:transform-center-x="-18.430919"
            inkscape:transform-center-y="-12.905471"/>
        <rect
            style="opacity:0.5;fill:#ffff00;fill-opacity:1;fill-rule:nonzero;stroke:none;stroke-width:20;stroke-linejoin:round;stroke-miterlimit:4;stroke-dasharray:none;stroke-opacity:1;paint-order:normal"
            height="7"
            id="rect844"
            ry="0"
            transform="rotate(-49)"
            width="45"
            x="-5.3271298"
            y="72.681503"
            inkscape:transform-center-x="-14.761326"
            inkscape:transform-center-y="-16.980967"/>
        <rect
            style="opacity:0.5;fill:#ffff00;fill-opacity:1;fill-rule:nonzero;stroke:none;stroke-width:20;stroke-linejoin:round;stroke-miterlimit:4;stroke-dasharray:none;stroke-opacity:1;paint-order:normal"
            height="7"
            id="rect893"
            ry="0"
            transform="rotate(-45)"
            width="45"
            x="-7.1959363e-009"
            y="72.867531"
            inkscape:transform-center-x="-15.909901"
            inkscape:transform-center-y="-15.909904"/></g>
    <g
        style="opacity:0.98999999"
        id="g909"
        inkscape:label="new"><path
       style="display:inline;opacity:0.3;fill:#ffffff;fill-opacity:1;fill-rule:nonzero;stroke:none;stroke-width:20;stroke-linejoin:round;stroke-miterlimit:4;stroke-dasharray:none;stroke-opacity:1;paint-order:normal"
       d="M 69.994141,31.056641 A 28,28 0 0 0 54,26 28,28 0 0 0 26,54 28,28 0 0 0 54,82 28,28 0 0 0 82,54 28,28 0 0 0 78.75,40.943359 l -8.714844,6.101563 a 17.5,17.5 0 0 1 0.275391,0.613281 17.5,17.5 0 0 1 0.550781,1.660156 17.5,17.5 0 0 1 0.384766,1.707032 17.5,17.5 0 0 1 0.210937,1.736328 A 17.5,17.5 0 0 1 71.5,54 a 17.5,17.5 0 0 1 -0.08789,1.748047 17.5,17.5 0 0 1 -0.261718,1.728515 17.5,17.5 0 0 1 -0.431641,1.695313 17.5,17.5 0 0 1 -0.599609,1.642578 17.5,17.5 0 0 1 -0.761719,1.576172 17.5,17.5 0 0 1 -0.914063,1.490234 17.5,17.5 0 0 1 -1.058593,1.392579 17.5,17.5 0 0 1 -1.19336,1.28125 17.5,17.5 0 0 1 -1.3125,1.154296 17.5,17.5 0 0 1 -1.423828,1.017578 17.5,17.5 0 0 1 -1.517578,0.869141 17.5,17.5 0 0 1 -1.595703,0.714844 17.5,17.5 0 0 1 -1.660156,0.550781 17.5,17.5 0 0 1 -1.707032,0.384766 17.5,17.5 0 0 1 -1.736328,0.210937 A 17.5,17.5 0 0 1 54,71.5 17.5,17.5 0 0 1 52.251953,71.412109 17.5,17.5 0 0 1 50.523438,71.150391 17.5,17.5 0 0 1 48.828125,70.71875 17.5,17.5 0 0 1 47.185547,70.119141 17.5,17.5 0 0 1 45.609375,69.357422 17.5,17.5 0 0 1 44.119141,68.443359 17.5,17.5 0 0 1 42.726562,67.384766 17.5,17.5 0 0 1 41.445312,66.191406 17.5,17.5 0 0 1 40.291016,64.878906 17.5,17.5 0 0 1 39.273438,63.455078 17.5,17.5 0 0 1 38.404297,61.9375 17.5,17.5 0 0 1 37.689453,60.341797 17.5,17.5 0 0 1 37.138672,58.681641 17.5,17.5 0 0 1 36.753906,56.974609 17.5,17.5 0 0 1 36.542969,55.238281 17.5,17.5 0 0 1 36.5,54 a 17.5,17.5 0 0 1 0.08789,-1.748047 17.5,17.5 0 0 1 0.261718,-1.728515 17.5,17.5 0 0 1 0.431641,-1.695313 17.5,17.5 0 0 1 0.599609,-1.642578 17.5,17.5 0 0 1 0.761719,-1.576172 17.5,17.5 0 0 1 0.914063,-1.490234 17.5,17.5 0 0 1 1.058593,-1.392579 17.5,17.5 0 0 1 1.19336,-1.28125 17.5,17.5 0 0 1 1.3125,-1.154296 17.5,17.5 0 0 1 1.423828,-1.017578 17.5,17.5 0 0 1 1.517578,-0.869141 17.5,17.5 0 0 1 1.595703,-0.714844 17.5,17.5 0 0 1 1.660156,-0.550781 17.5,17.5 0 0 1 1.707032,-0.384766 17.5,17.5 0 0 1 1.736328,-0.210937 A 17.5,17.5 0 0 1 54,36.5 a 17.5,17.5 0 0 1 1.748047,0.08789 17.5,17.5 0 0 1 1.728515,0.261718 17.5,17.5 0 0 1 1.695313,0.431641 17.5,17.5 0 0 1 1.642578,0.599609 17.5,17.5 0 0 1 1.576172,0.761719 17.5,17.5 0 0 1 0.01172,0.0059 z"
       id="path935"
       inkscape:connector-curvature="0" />
        <path
            style="opacity:0.7;fill:#ffffff;fill-opacity:1;fill-rule:nonzero;stroke:none;stroke-width:20;stroke-linejoin:round;stroke-miterlimit:4;stroke-dasharray:none;stroke-opacity:1;paint-order:normal"
            d="M 59.78125,41.269531 A 14,14 0 0 0 54,40 14,14 0 0 0 40,54 14,14 0 0 0 54,68 14,14 0 0 0 68,54 14,14 0 0 0 67.097656,49.101562 L 60.96875,53.392578 A 7,7 0 0 1 60.98242,53.503906 7,7 0 0 1 61,54 a 7,7 0 0 1 -0.03516,0.699219 7,7 0 0 1 -0.103516,0.691406 7,7 0 0 1 -0.173828,0.677734 7,7 0 0 1 -0.240234,0.658203 7,7 0 0 1 -0.304688,0.628907 7,7 0 0 1 -0.365234,0.597656 7,7 0 0 1 -0.423828,0.556641 7,7 0 0 1 -0.476563,0.511718 7,7 0 0 1 -0.525391,0.460938 7,7 0 0 1 -0.570312,0.408203 7,7 0 0 1 -0.605469,0.347656 7,7 0 0 1 -0.638672,0.285157 7,7 0 0 1 -0.664062,0.220703 7,7 0 0 1 -0.683594,0.154297 7,7 0 0 1 -0.693359,0.08398 A 7,7 0 0 1 54,61 7,7 0 0 1 53.300781,60.964844 7,7 0 0 1 52.609375,60.861328 7,7 0 0 1 51.931641,60.6875 7,7 0 0 1 51.273438,60.447266 7,7 0 0 1 50.644531,60.142578 7,7 0 0 1 50.046875,59.777344 7,7 0 0 1 49.490234,59.353516 7,7 0 0 1 48.978516,58.876953 7,7 0 0 1 48.517578,58.351562 7,7 0 0 1 48.109375,57.78125 7,7 0 0 1 47.761719,57.175781 7,7 0 0 1 47.476562,56.537109 7,7 0 0 1 47.255859,55.873047 7,7 0 0 1 47.101562,55.189453 7,7 0 0 1 47.017578,54.496094 7,7 0 0 1 47,54 a 7,7 0 0 1 0.03516,-0.699219 7,7 0 0 1 0.103516,-0.691406 7,7 0 0 1 0.173828,-0.677734 7,7 0 0 1 0.240234,-0.658203 7,7 0 0 1 0.304688,-0.628907 7,7 0 0 1 0.365234,-0.597656 7,7 0 0 1 0.423828,-0.556641 7,7 0 0 1 0.476563,-0.511718 7,7 0 0 1 0.525391,-0.460938 7,7 0 0 1 0.570312,-0.408203 7,7 0 0 1 0.605469,-0.347656 7,7 0 0 1 0.638672,-0.285157 7,7 0 0 1 0.664062,-0.220703 7,7 0 0 1 0.683594,-0.154297 7,7 0 0 1 0.693359,-0.08398 A 7,7 0 0 1 54,47 a 7,7 0 0 1 0.04883,0.002 z"
            id="path939"
            inkscape:connector-curvature="0"/>
        <circle
            style="opacity:1;fill:#ffffff;fill-opacity:1;fill-rule:nonzero;stroke:none;stroke-width:20;stroke-linejoin:round;stroke-miterlimit:4;stroke-dasharray:none;stroke-opacity:1;paint-order:normal"
            cx="54"
            cy="54.000011"
            id="circle901"
            r="3.5"/>
        <path
            style="opacity:1;fill:#ffffff;fill-opacity:1;fill-rule:nonzero;stroke:none;stroke-width:20;stroke-linejoin:round;stroke-miterlimit:4;stroke-dasharray:none;stroke-opacity:1;paint-order:normal"
            d="M 76.847656,26.203125 55.804688,47.246094 a 7,7 0 0 1 0.263671,0.06641 7,7 0 0 1 0.658203,0.240234 7,7 0 0 1 0.628907,0.304688 7,7 0 0 1 0.597656,0.365234 7,7 0 0 1 0.556641,0.423828 7,7 0 0 1 0.511718,0.476563 7,7 0 0 1 0.460938,0.525391 7,7 0 0 0 0.002,0.002 7,7 0 0 1 0.40625,0.568359 7,7 0 0 1 0.347656,0.605469 7,7 0 0 1 0.285157,0.638672 7,7 0 0 1 0.220703,0.664062 7,7 0 0 0 0,0.002 7,7 0 0 1 0.01367,0.0625 L 81.791016,31.158203 a 36,36 0 0 0 -4.94336,-4.955078 z"
            id="rect905"
            inkscape:connector-curvature="0"/></g></svg>