<?xml version="1.0" encoding="utf-8"?>
<!-- Generator: Adobe Illustrator 21.1.0, SVG Export Plug-In . SVG Version: 6.00 Build 0)  -->
<svg version="1.1" id="Layer_1" xmlns="http://www.w3.org/2000/svg" xmlns:xlink="http://www.w3.org/1999/xlink" x="0px" y="0px"
	 viewBox="0 0 512 512" style="enable-background:new 0 0 512 512;" xml:space="preserve">
<style type="text/css">
	.st0{fill:#363636;}
	.st1{fill:#009966;}
	.st2{fill:#008055;}
	.st3{display:none;fill:#11A63D;}
	.st4{fill:#006644;}
</style>
<circle class="st0" cx="256.5" cy="255.5" r="256"/>
<circle class="st1" cx="256" cy="255" r="46"/>
<path class="st2" d="M352.9,260c-2.1,51.2-44.2,92-95.9,92c-53,0-96-43-96-96s43-96,96-96c17,0,33,4.4,46.9,12.2l35.2-24.6
	C316.3,130.3,287.9,120,257,120c-75.1,0-136,60.9-136,136s60.9,136,136,136s136-60.9,136-136c0-7.7-0.7-15.3-1.9-22.7L352.9,260z"/>
<rect x="123.7" y="226.7" transform="matrix(0.8192 -0.5736 0.5736 0.8192 -98.9515 189.6338)" class="st3" width="255" height="50"/>
<path class="st4" d="M439.5,199.4c5.5,17.9,8.5,36.9,8.5,56.6c0,106-86,192-192,192S64,362,64,256S150,64,256,64
	c50.2,0,95.8,19.2,130,50.7l40.6-28.5C383.2,42.3,322.8,15,256,15C123.5,15,16,122.5,16,255s107.5,240,240,240s240-107.5,240-240
	c0-29.7-5.4-58.2-15.3-84.5L439.5,199.4z"/>
<path class="st1" d="M436.5,97.8L293.4,198c14.3,9.2,24.9,23.6,29.4,40.5l142.6-99.9C457.2,124,447.5,110.3,436.5,97.8z"/>
</svg>
