<?xml version="1.0" encoding="UTF-8" standalone="no"?>
<!-- Created with Inkscape (http://www.inkscape.org/) -->

<svg
   xmlns:dc="http://purl.org/dc/elements/1.1/"
   xmlns:cc="http://creativecommons.org/ns#"
   xmlns:rdf="http://www.w3.org/1999/02/22-rdf-syntax-ns#"
   xmlns:svg="http://www.w3.org/2000/svg"
   xmlns="http://www.w3.org/2000/svg"
   xmlns:sodipodi="http://sodipodi.sourceforge.net/DTD/sodipodi-0.dtd"
   xmlns:inkscape="http://www.inkscape.org/namespaces/inkscape"
   width="500"
   height="500"
   viewBox="0 0 500 500"
   version="1.1"
   id="svg8"
   sodipodi:docname="ic_intro_signals.svg"
   inkscape:version="0.92.1 r15371">
  <sodipodi:namedview
     id="base"
     pagecolor="#ffffff"
     bordercolor="#666666"
     borderopacity="1.0"
     inkscape:pageopacity="0"
     inkscape:pageshadow="2"
     inkscape:zoom="1"
     inkscape:cx="231.5"
     inkscape:cy="183.54534"
     inkscape:document-units="px"
     inkscape:current-layer="layer1"
     showgrid="false"
     units="px"
     inkscape:pagecheckerboard="true"
     showborder="true"
     borderlayer="false"
     showguides="false"
     inkscape:window-width="1920"
     inkscape:window-height="1017"
     inkscape:window-x="-8"
     inkscape:window-y="-8"
     inkscape:window-maximized="1"
     inkscape:snap-page="false"
     inkscape:snap-bbox="false"
     inkscape:snap-bbox-midpoints="true"
     inkscape:snap-nodes="false"
     inkscape:snap-object-midpoints="true" />
  <defs
     id="defs2">
    <linearGradient
       id="linearGradient27934">
      <stop
         id="stop27930"
         offset="0"
         style="stop-color:#000000;stop-opacity:1;" />
      <stop
         id="stop27932"
         offset="1"
         style="stop-color:#000000;stop-opacity:0" />
    </linearGradient>
    <linearGradient
       id="linearGradient8964">
      <stop
         style="stop-color:#000000;stop-opacity:1;"
         offset="0"
         id="stop8960" />
      <stop
         style="stop-color:#000000;stop-opacity:0"
         offset="1"
         id="stop8962" />
    </linearGradient>
  </defs>
  <metadata
     id="metadata5">
    <rdf:RDF>
      <cc:Work
         rdf:about="">
        <dc:format>image/svg+xml</dc:format>
        <dc:type
           rdf:resource="http://purl.org/dc/dcmitype/StillImage" />
        <dc:title />
      </cc:Work>
    </rdf:RDF>
  </metadata>
  <g
     transform="translate(0,-1186.7638)"
     id="layer1"
     inkscape:groupmode="layer"
     inkscape:label="Layer 1">
    <circle
       r="240"
       style="fill:#303030;fill-opacity:1;stroke:#ffffff;stroke-width:20;stroke-linejoin:round;stroke-miterlimit:4;stroke-dasharray:none;stroke-opacity:1;paint-order:normal;image-rendering:optimizeQuality"
       transform="scale(-1)"
       cy="-1436.7638"
       cx="-250"
       id="path3987"
       inkscape:label="background" />
    <g
       style="stroke-width:0.15652174"
       transform="matrix(6.3888889,0,0,6.3888889,-95.000001,1091.7638)"
       id="g33628"
       inkscape:label="Signals logo">
      <circle
         style="fill:#009966;stroke-width:0.15652174"
         class="st0"
         cx="54"
         cy="54"
         r="6.9000001"
         id="circle33620" />
      <path
         style="fill:#008055;stroke-width:0.15652174"
         inkscape:connector-curvature="0"
         class="st1"
         d="m 68.5,54.8 c -0.3,7.7 -6.6,13.8 -14.4,13.8 -8,0 -14.4,-6.4 -14.4,-14.4 0,-8 6.4,-14.4 14.4,-14.4 2.6,0 5,0.7 7,1.8 l 5.3,-3.7 C 63,35.3 58.7,33.8 54.1,33.8 c -11.3,0 -20.4,9.1 -20.4,20.4 0,11.3 9.1,20.4 20.4,20.4 11.3,0 20.4,-9.1 20.4,-20.4 0,-1.2 -0.1,-2.3 -0.3,-3.4 z"
         id="path33622" />
      <path
         style="fill:#006644;stroke-width:0.15652174"
         inkscape:connector-curvature="0"
         class="st2"
         d="m 81.5,45.7 c 0.8,2.7 1.3,5.5 1.3,8.5 C 82.8,70.1 69.9,83 54,83 38.1,83 25.2,70.1 25.2,54.2 25.2,38.3 38.1,25.4 54,25.4 c 7.5,0 14.4,2.9 19.5,7.6 l 6.1,-4.3 C 73.1,22.1 64,18 54,18 34.1,18 18,34.1 18,54 18,73.9 34.1,90 54,90 73.9,90 90,73.9 90,54 90,49.5 89.2,45.3 87.7,41.3 Z"
         id="path33624" />
      <path
         style="fill:#009966;stroke-width:0.15652174"
         inkscape:connector-curvature="0"
         class="st0"
         d="m 81.1,30.4 -21.5,15 c 2.1,1.4 3.7,3.5 4.4,6.1 l 21.4,-15 c -1.2,-2.1 -2.7,-4.2 -4.3,-6.1 z"
         id="path33626" />
    </g>
  </g>
  <style
     id="style29992"
     type="text/css">
	.st0{fill:#009966;}
	.st1{fill:#008055;}
	.st2{fill:#006644;}
</style>
  <style
     id="style30075"
     type="text/css">
	.st0{fill:#009966;}
	.st1{fill:#008055;}
	.st2{fill:#006644;}
</style>
</svg>
